<svg xmlns="http://www.w3.org/2000/svg" width="40.276" height="21.325" viewBox="0 0 40.276 21.325"><path fill="#FFF" d="M8.64 18.203c-2.871 0-4.604-2.225-4.604-6.557 0-4.183 1.931-6.708 4.629-6.708 2.575 0 3.688 1.856 4.034 3.019l3.664-.988c-.618-2.081-2.697-5.125-7.674-5.125C3.342 1.843 0 5.976 0 11.719c0 5.916 2.847 9.606 8.64 9.606 5.346 0 7.401-3.467 7.945-5.769l-3.763-.768c-.272 1.411-1.385 3.415-4.182 3.415zM29.36 21.325h3.453l-.138-8.084 6.691-.204v-3.09l-6.685.013-.131-4.469 7.726.007V2.224H29.36zM22.062 0a3.834 3.834 0 1 0-.001 7.669A3.834 3.834 0 0 0 22.062 0zm0 5.465a1.63 1.63 0 1 1 0-3.263 1.631 1.631 0 0 1 0 3.263z"/></svg>